<svg width="307" height="285" viewBox="0 0 307 285" fill="none" xmlns="http://www.w3.org/2000/svg">
<path d="M206.577 47.4142C206.202 47.7893 205.694 48 205.163 48H100.82C100.29 48 99.7809 47.7893 99.4059 47.4142L87.4059 35.4142C86.1459 34.1543 87.0383 32 88.8201 32H217.163C218.945 32 219.837 34.1543 218.577 35.4142L206.577 47.4142Z" fill="white"/>
<path d="M50.0961 124.353C50.6024 124.491 51.0341 124.823 51.2981 125.276L95.9625 201.964C96.2323 202.427 96.3049 202.98 96.1638 203.497L92.4928 216.957C92.0255 218.67 89.7238 218.97 88.833 217.434L34.4438 123.632C33.5469 122.086 34.9753 120.229 36.7002 120.7L50.0961 124.353Z" fill="white"/>
<path d="M209.419 204.093C209.278 203.576 209.351 203.024 209.62 202.561L254.597 125.336C254.862 124.882 255.293 124.551 255.799 124.413L269.325 120.724C271.05 120.254 272.478 122.11 271.582 123.657L216.785 218.161C215.894 219.697 213.593 219.397 213.125 217.684L209.419 204.093Z" fill="white"/>
<path d="M230.242 79.08L244.082 70.8067" stroke="white" stroke-width="2" stroke-linecap="round"/>
<path d="M74.595 79.25L60.7548 70.9766" stroke="white" stroke-width="2" stroke-linecap="round"/>
<path d="M152.492 252.125V236" stroke="white" stroke-width="2" stroke-linecap="round"/>
<line x1="152.113" y1="125.785" x2="244.113" y2="70.7854" stroke="url(#paint0_linear_2_93)" stroke-width="0.5"/>
<line y1="-0.25" x2="107.187" y2="-0.25" transform="matrix(-0.858315 -0.513123 -0.513123 0.858315 152.242 126)" stroke="url(#paint1_linear_2_93)" stroke-width="0.5"/>
<line x1="152.492" y1="126" x2="152.492" y2="236" stroke="url(#paint2_linear_2_93)" stroke-width="0.5"/>
<g filter="url(#filter0_d_2_93)">
<path d="M193.992 126C162.226 132.477 157.868 137.728 152.492 176C147.115 137.728 142.757 132.477 110.992 126C142.757 119.523 147.115 114.272 152.492 76C157.868 114.272 162.226 119.523 193.992 126Z" fill="#BD0249"/>
</g>
<defs>
<filter id="filter0_d_2_93" x="87.7917" y="52.8" width="129.4" height="146.4" filterUnits="userSpaceOnUse" color-interpolation-filters="sRGB">
<feFlood flood-opacity="0" result="BackgroundImageFix"/>
<feColorMatrix in="SourceAlpha" type="matrix" values="0 0 0 0 0 0 0 0 0 0 0 0 0 0 0 0 0 0 127 0" result="hardAlpha"/>
<feOffset/>
<feGaussianBlur stdDeviation="11.6"/>
<feComposite in2="hardAlpha" operator="out"/>
<feColorMatrix type="matrix" values="0 0 0 0 0.741176 0 0 0 0 0.00784314 0 0 0 0 0.286275 0 0 0 0.5 0"/>
<feBlend mode="normal" in2="BackgroundImageFix" result="effect1_dropShadow_2_93"/>
<feBlend mode="normal" in="SourceGraphic" in2="effect1_dropShadow_2_93" result="shape"/>
</filter>
<linearGradient id="paint0_linear_2_93" x1="152.498" y1="126.429" x2="244.498" y2="71.4292" gradientUnits="userSpaceOnUse">
<stop offset="0.168233" stop-color="white" stop-opacity="0"/>
<stop offset="0.840414" stop-color="white"/>
</linearGradient>
<linearGradient id="paint1_linear_2_93" x1="0" y1="0.5" x2="107.187" y2="0.5" gradientUnits="userSpaceOnUse">
<stop offset="0.16507" stop-color="white" stop-opacity="0"/>
<stop offset="0.83782" stop-color="white"/>
</linearGradient>
<linearGradient id="paint2_linear_2_93" x1="151.742" y1="126" x2="151.742" y2="236" gradientUnits="userSpaceOnUse">
<stop offset="0.455078" stop-color="white" stop-opacity="0"/>
<stop offset="0.989437" stop-color="white"/>
</linearGradient>
</defs>
</svg>
